<mxfile host="app.diagrams.net" modified="2023-11-01T01:48:14.559Z" agent="Mozilla/5.0 (Windows NT 10.0; Win64; x64) AppleWebKit/537.36 (KHTML, like Gecko) Chrome/118.0.0.0 Safari/537.36" version="22.0.8" etag="6ZADSW8NS-9crahgmhvr" type="github">
  <diagram name="Page-1" id="5BcCKyW4TjTgq5aRbnk8">
    <mxGraphModel>
      <root>
        <mxCell id="0" />
        <mxCell id="1" parent="0" />
        <mxCell id="2" value="Pengguna" style="shape=umlLifeline;perimeter=lifelinePerimeter;whiteSpace=wrap;container=1;dropTarget=0;collapsible=0;recursiveResize=0;outlineConnect=0;portConstraint=eastwest;newEdgeStyle={&quot;edgeStyle&quot;:&quot;elbowEdgeStyle&quot;,&quot;elbow&quot;:&quot;vertical&quot;,&quot;curved&quot;:0,&quot;rounded&quot;:0};size=65;" vertex="1" parent="1">
          <mxGeometry width="150" height="552" as="geometry" />
        </mxCell>
        <mxCell id="3" value="Sistem Informasi Akademik" style="shape=umlLifeline;perimeter=lifelinePerimeter;whiteSpace=wrap;container=1;dropTarget=0;collapsible=0;recursiveResize=0;outlineConnect=0;portConstraint=eastwest;newEdgeStyle={&quot;edgeStyle&quot;:&quot;elbowEdgeStyle&quot;,&quot;elbow&quot;:&quot;vertical&quot;,&quot;curved&quot;:0,&quot;rounded&quot;:0};size=65;" vertex="1" parent="1">
          <mxGeometry x="260" width="212" height="552" as="geometry" />
        </mxCell>
        <mxCell id="4" value="alt" style="shape=umlFrame;dashed=1;pointerEvents=0;dropTarget=0;strokeColor=#B3B3B3;height=20;width=30" vertex="1" parent="1">
          <mxGeometry x="65" y="179" width="407" height="278" as="geometry" />
        </mxCell>
        <mxCell id="5" value="[Verifikasi data pembayaran]" style="text;strokeColor=none;fillColor=none;align=center;verticalAlign=middle;whiteSpace=wrap;" vertex="1" parent="4">
          <mxGeometry x="30" width="377" height="20" as="geometry" />
        </mxCell>
        <mxCell id="6" value="[Verifikasi data gagal]" style="shape=line;dashed=1;whiteSpace=wrap;verticalAlign=top;labelPosition=center;verticalLabelPosition=middle;align=center;strokeColor=#B3B3B3;" vertex="1" parent="4">
          <mxGeometry y="185" width="407" height="4" as="geometry" />
        </mxCell>
        <mxCell id="7" value="Memilih jenis pembayaran" style="verticalAlign=bottom;endArrow=block;edgeStyle=elbowEdgeStyle;elbow=vertical;curved=0;rounded=0;" edge="1" parent="1" source="2" target="3">
          <mxGeometry relative="1" as="geometry">
            <Array as="points">
              <mxPoint x="231" y="107" />
            </Array>
          </mxGeometry>
        </mxCell>
        <mxCell id="8" value="Memasukkan data pembayaran" style="verticalAlign=bottom;endArrow=block;edgeStyle=elbowEdgeStyle;elbow=vertical;curved=0;rounded=0;" edge="1" parent="1" source="2" target="3">
          <mxGeometry relative="1" as="geometry">
            <Array as="points">
              <mxPoint x="231" y="159" />
            </Array>
          </mxGeometry>
        </mxCell>
        <mxCell id="9" value="Verifikasi data pembayaran" style="curved=1;" edge="1" parent="1" source="3" target="3">
          <mxGeometry relative="1" as="geometry">
            <Array as="points">
              <mxPoint x="416" y="257" />
              <mxPoint x="416" y="287" />
            </Array>
          </mxGeometry>
        </mxCell>
        <mxCell id="10" value="Konfirmasi hasil verifikasi" style="verticalAlign=bottom;endArrow=block;edgeStyle=elbowEdgeStyle;elbow=vertical;curved=0;rounded=0;" edge="1" parent="1" source="3" target="2">
          <mxGeometry relative="1" as="geometry">
            <Array as="points">
              <mxPoint x="231" y="339" />
            </Array>
          </mxGeometry>
        </mxCell>
        <mxCell id="11" value="Error: Verifikasi data gagal" style="verticalAlign=bottom;endArrow=block;edgeStyle=elbowEdgeStyle;elbow=vertical;curved=0;rounded=0;" edge="1" parent="1" source="3" target="2">
          <mxGeometry relative="1" as="geometry">
            <Array as="points">
              <mxPoint x="231" y="437" />
            </Array>
          </mxGeometry>
        </mxCell>
      </root>
    </mxGraphModel>
  </diagram>
</mxfile>
